<?xml version="1.0" encoding="UTF-8" standalone="no"?><!DOCTYPE svg PUBLIC "-//W3C//DTD SVG 1.1//EN" "http://www.w3.org/Graphics/SVG/1.1/DTD/svg11.dtd"><svg width="100%" height="100%" viewBox="0 0 32 32" version="1.1" xmlns="http://www.w3.org/2000/svg" xmlns:xlink="http://www.w3.org/1999/xlink" xml:space="preserve" xmlns:serif="http://www.serif.com/" style="fill-rule:evenodd;clip-rule:evenodd;stroke-linejoin:round;stroke-miterlimit:2;"><g id="stash"><path d="M3.5,9.115c-0,-0.408 -0,-0.816 0.017,-1.256c0.029,-0.137 0.028,-0.244 0.052,-0.345c0.14,-0.576 0.327,-1.131 0.647,-1.639c0.615,-0.978 1.447,-1.688 2.536,-2.078c0.354,-0.127 0.728,-0.2 1.094,-0.297c5.421,-0 10.842,-0 16.295,0.017c0.137,0.029 0.244,0.028 0.345,0.052c0.576,0.14 1.131,0.327 1.639,0.647c0.978,0.615 1.688,1.447 2.078,2.536c0.127,0.354 0.2,0.728 0.297,1.094c0,0.408 0,0.816 -0.016,1.254c-0.04,0.098 -0.06,0.168 -0.089,0.233c-0.318,0.716 -0.64,1.43 -0.955,2.147c-0.444,1.009 -0.883,2.02 -1.323,3.031c-0.084,0.195 -0.159,0.393 -0.236,0.585c0.519,0.025 1.012,0.039 1.503,0.076c0.576,0.044 1.085,0.591 1.063,1.167c-0.03,0.765 -0.092,1.528 -0.141,2.292c-0.049,0.764 -0.101,1.528 -0.147,2.292c-0.037,0.628 -0.065,1.257 -0.099,1.885c-0.014,0.258 -0.03,0.515 -0.05,0.772c-0.063,0.851 -0.132,1.701 -0.192,2.551c-0.025,0.363 -0.027,0.727 -0.054,1.089c-0.011,0.149 -0.046,0.3 -0.094,0.442c-0.148,0.428 -0.451,0.7 -0.879,0.838c-7.179,0 -14.358,0 -21.567,-0.016c-0.465,-0.051 -0.912,-0.617 -0.94,-0.993c-0.055,-0.729 -0.094,-1.459 -0.144,-2.188c-0.038,-0.566 -0.088,-1.132 -0.125,-1.699c-0.045,-0.689 -0.087,-1.378 -0.118,-2.068c-0.013,-0.281 0.148,-0.458 0.387,-0.47c0.247,-0.012 0.414,0.144 0.439,0.42c0.02,0.219 0.033,0.438 0.047,0.657c0.107,1.574 0.227,3.148 0.314,4.723c0.046,0.827 0.204,0.826 0.976,0.798c6.615,0.003 13.207,0.004 19.799,0.004c0.049,0 0.097,-0.004 0.168,-0.004c0.113,0.003 0.202,0.006 0.291,0.005c0.416,-0.002 0.554,-0.137 0.575,-0.55c0.015,-0.292 0.034,-0.584 0.054,-0.876c0.126,-1.815 0.253,-3.63 0.376,-5.446c0.097,-1.418 0.188,-2.836 0.282,-4.255c0.023,-0.336 -0.141,-0.526 -0.478,-0.54c-0.129,-0.005 -0.26,0.004 -0.412,0.004c-2.606,-0.003 -5.19,-0.003 -7.775,-0.003l0,1.66l0.304,0c0.993,0 1.986,0 2.979,0c0.887,0 1.773,-0.003 2.66,0.002c0.61,0.003 0.965,0.4 0.914,1.007c-0.008,0.097 -0.02,0.194 -0.026,0.292c-0.135,2.053 -0.267,4.106 -0.405,6.159c-0.037,0.566 -0.369,0.88 -0.933,0.88c-5.623,0.002 -11.245,0.002 -16.868,0c-0.554,0 -0.888,-0.308 -0.929,-0.858c-0.06,-0.794 -0.105,-1.59 -0.157,-2.385c-0.088,-1.331 -0.168,-2.663 -0.269,-3.993c-0.055,-0.733 0.266,-1.103 1.006,-1.104c1.848,-0 3.695,0 5.542,0l0.3,0l0,-1.663c-0.343,0 -0.667,-0 -0.991,0c-2.254,0.002 -4.508,0.005 -6.784,0.004c-0.095,-0.003 -0.168,-0.004 -0.241,-0.004c-0.555,-0 -0.675,0.135 -0.633,0.686c0.035,0.454 0.062,0.909 0.086,1.363c0.014,0.285 -0.126,0.466 -0.363,0.492c-0.244,0.026 -0.451,-0.143 -0.472,-0.419c-0.045,-0.597 -0.08,-1.196 -0.109,-1.794c-0.014,-0.296 0.125,-0.538 0.308,-0.762c0.3,-0.366 0.718,-0.428 1.149,-0.443c0.364,-0.012 0.729,-0.002 1.127,-0.002c-0.097,-0.23 -0.181,-0.436 -0.271,-0.64c-0.378,-0.855 -0.759,-1.709 -1.136,-2.565c-0.411,-0.933 -0.819,-1.867 -1.228,-2.801m19.925,5.246c0.006,0.001 0.013,0.001 0.02,0.002c-0.003,-0.012 -0.006,-0.025 -0.009,-0.077c-0.022,-0.69 -0.453,-1.03 -1.073,-1.238c0.062,0.241 0.115,0.469 0.181,0.693c0.018,0.065 0.059,0.141 0.113,0.174c0.248,0.151 0.505,0.289 0.768,0.446m-1.905,-1.137l0.012,-0.001c-0,-0 -0.017,-0.004 -0.008,-0.044c-0.053,-0.221 -0.1,-0.443 -0.158,-0.663c-0.041,-0.151 -0.327,-0.344 -0.472,-0.311c-0.248,0.056 -0.493,0.128 -0.812,0.213c0.521,0.289 0.979,0.543 1.438,0.806m-15.255,-7.583c0.01,-0.013 0.016,-0.027 0.043,-0.057c0.008,-0.028 0.016,-0.055 0.042,-0.11c0.296,-0.324 0.593,-0.649 0.83,-0.908c-1.589,0.401 -2.925,2.23 -2.814,3.914c0.037,0.005 0.076,0.015 0.115,0.015c0.227,-0.002 0.453,-0.007 0.724,-0.003c0.142,-0.037 0.393,0.129 0.382,-0.197c-0.031,-0.944 0.179,-1.826 0.678,-2.654m1.676,9.396c0.149,-0.815 0.304,-1.629 0.446,-2.446c0.043,-0.249 0.158,-0.407 0.404,-0.492c0.838,-0.287 1.67,-0.589 2.507,-0.879c0.92,-0.319 0.695,-0.363 1.425,0.269c0.173,0.15 0.333,0.188 0.551,0.145c0.93,-0.182 1.871,-0.23 2.815,-0.21c0.208,0.004 0.416,0.027 0.627,0.041c-0.04,-0.628 -0.013,-0.665 0.59,-0.821c0.535,-0.138 1.067,-0.288 1.607,-0.403c0.166,-0.035 0.385,-0.023 0.527,0.058c1.442,0.834 2.875,1.682 4.302,2.539c0.125,0.075 0.235,0.231 0.278,0.372c0.131,0.418 0.224,0.847 0.335,1.31c0.047,0.164 0.078,0.334 0.146,0.489c0.03,0.069 0.125,0.136 0.202,0.154c0.19,0.044 0.245,-0.109 0.304,-0.246c0.676,-1.546 1.353,-3.091 2.028,-4.637c0.132,-0.301 0.258,-0.604 0.407,-0.953c-0.321,0 -0.592,0 -0.906,0.002c-0.227,0.007 -0.455,0.021 -0.682,0.021c-6.567,0.001 -13.134,0.001 -19.701,0.001c-0.251,-0 -0.502,0.002 -0.795,-0.01l-0.794,-0c0.053,0.128 0.087,0.218 0.126,0.306c0.724,1.656 1.45,3.313 2.175,4.969c0.266,0.608 0.266,0.61 0.922,0.549c0.049,-0.005 0.094,-0.059 0.154,-0.128m7.693,8.468l-8.264,-0c0.03,0.467 0.061,0.894 0.084,1.323c0.019,0.343 0.015,0.344 0.356,0.344c5.46,0 10.92,-0 16.38,-0c0.065,-0 0.136,0.015 0.194,-0.006c0.056,-0.02 0.138,-0.075 0.142,-0.12c0.041,-0.5 0.069,-1.001 0.104,-1.541l-8.996,-0m-8.413,-2.428c0.025,0.412 0.068,0.825 0.069,1.238c0,0.289 0.124,0.337 0.383,0.337c5.548,-0.007 11.095,-0.006 16.642,-0.006c0.065,0 0.141,0.021 0.192,-0.006c0.072,-0.037 0.17,-0.105 0.178,-0.169c0.047,-0.402 0.066,-0.808 0.105,-1.212c0.022,-0.218 -0.066,-0.279 -0.277,-0.278c-2.074,0.006 -4.148,0 -6.222,0.011c-0.146,0.001 -0.32,0.073 -0.431,0.169c-1.011,0.879 -2.706,0.88 -3.716,0.004c-0.116,-0.1 -0.3,-0.172 -0.453,-0.173c-2.066,-0.011 -4.132,-0.008 -6.198,-0.005c-0.085,0 -0.17,0.033 -0.272,0.09m-0.422,-12.592l18.777,0c0,-0.174 0.005,-0.311 -0.001,-0.447c-0.018,-0.409 0.056,-0.376 -0.387,-0.376c-6.125,-0 -12.25,-0 -18.375,-0c-0.082,-0 -0.166,-0.012 -0.243,0.006c-0.051,0.011 -0.128,0.064 -0.13,0.101c-0.012,0.232 -0.006,0.464 -0.006,0.716l0.365,0m9.128,-2.493c-2.887,-0 -5.775,-0.001 -8.662,0.002c-0.089,0 -0.22,0.019 -0.259,0.078c-0.145,0.218 -0.259,0.456 -0.41,0.73l18.796,0c-0.12,-0.237 -0.221,-0.436 -0.32,-0.636c-0.07,-0.141 -0.18,-0.179 -0.337,-0.178c-2.92,0.005 -5.84,0.004 -8.808,0.004m2.161,10.96l-0,-0.931l-4.158,0c-0.008,0.053 -0.016,0.085 -0.016,0.116c-0.001,0.911 -0.008,1.822 0.002,2.733c0.006,0.574 0.185,1.091 0.604,1.499c0.63,0.614 1.381,0.791 2.201,0.487c0.779,-0.288 1.262,-0.87 1.327,-1.71c0.055,-0.712 0.03,-1.43 0.04,-2.194m1.599,-11.789l4.319,0c-0.096,-0.116 -0.197,-0.182 -0.304,-0.237c-0.775,-0.398 -1.609,-0.58 -2.47,-0.583c-3.489,-0.012 -6.979,-0.01 -10.468,-0.001c-0.736,0.002 -1.456,0.142 -2.138,0.433c-0.223,0.095 -0.433,0.218 -0.65,0.329c0.009,0.02 0.017,0.04 0.025,0.059c3.879,0 7.758,0 11.686,0m-10.206,13.333l-2.441,-0c0.029,0.496 0.064,0.956 0.079,1.416c0.006,0.204 0.089,0.254 0.283,0.254c1.895,-0.007 3.79,-0.004 5.685,-0.005c0.076,-0 0.151,-0.013 0.188,-0.016c-0.087,-0.559 -0.17,-1.09 -0.258,-1.649l-3.536,-0m13.282,-0l-3.777,-0c-0.093,0.578 -0.178,1.111 -0.267,1.666c0.083,-0 0.187,-0 0.291,-0c1.822,-0 3.644,-0 5.466,-0c0.082,-0 0.167,0.014 0.243,-0.007c0.055,-0.016 0.136,-0.076 0.14,-0.122c0.041,-0.5 0.069,-1.001 0.103,-1.537l-2.199,-0m-6.641,-3.329l1.08,-0c0.006,-0.066 0.012,-0.091 0.009,-0.114c-0.112,-0.853 -0.228,-1.706 -0.335,-2.559c-0.021,-0.167 -0.12,-0.192 -0.251,-0.195c-0.503,-0.014 -1.006,-0.045 -1.508,-0.034c-0.426,0.01 -0.85,0.068 -1.346,0.11c0.359,0.308 0.654,0.571 0.962,0.819c0.207,0.167 0.273,0.354 0.214,0.619c-0.099,0.439 -0.165,0.885 -0.249,1.354l1.424,-0m10.284,-9.646c-0.481,-0.462 -1.034,-0.8 -1.693,-0.969c0.02,0.048 0.063,0.069 0.099,0.098c0.61,0.477 1.051,1.078 1.322,1.805c0.216,0.58 0.281,1.182 0.283,1.796c-0,0.079 0.059,0.227 0.095,0.228c0.378,0.017 0.756,0.011 1.155,0.011c-0.034,-1.172 -0.442,-2.139 -1.261,-2.969m-7.456,9.64c0.414,0.002 0.828,0.008 1.242,0.005c0.068,-0.001 0.151,-0.019 0.201,-0.06c0.36,-0.289 0.713,-0.586 1.098,-0.906c-0.729,-0.431 -1.432,-0.846 -2.177,-1.287c-0.137,0.766 -0.268,1.497 -0.364,2.248m-7.71,0.008c0.244,-0.001 0.488,0.004 0.732,-0.004c0.061,-0.002 0.163,-0.037 0.174,-0.076c0.056,-0.211 0.129,-0.431 0.115,-0.642c-0.008,-0.109 -0.195,-0.198 -0.282,-0.311c-0.268,-0.35 -0.574,-0.348 -0.955,-0.18c-0.241,0.106 -0.403,0.192 -0.442,0.489c-0.096,0.733 -0.248,0.733 0.658,0.724m6.521,-2.272c0.092,0.681 0.185,1.363 0.277,2.045c0.193,-0.764 0.343,-1.521 0.483,-2.279c0.014,-0.076 0.001,-0.203 -0.047,-0.235c-0.253,-0.17 -0.522,-0.317 -0.835,-0.501c0.045,0.349 0.082,0.638 0.122,0.97m-7.473,-0.434c-0.21,0.075 -0.421,0.151 -0.638,0.229c0.484,0.636 0.589,0.67 1.29,0.425c0.107,-0.038 0.218,-0.067 0.319,-0.117c0.058,-0.029 0.131,-0.087 0.14,-0.141c0.043,-0.261 0.067,-0.525 0.101,-0.821c-0.414,0.144 -0.795,0.277 -1.212,0.425m-1.439,2.265c-0.023,0.14 -0.047,0.281 -0.076,0.453c0.108,-0.029 0.178,-0.043 0.246,-0.066c0.672,-0.22 0.673,-0.22 0.77,-0.915c0.01,-0.068 0.016,-0.167 -0.023,-0.206c-0.2,-0.206 -0.414,-0.398 -0.664,-0.633c-0.089,0.485 -0.166,0.905 -0.253,1.367m3.408,-2.007c-0.121,0.376 -0.002,0.656 0.336,0.853c0.056,0.032 0.095,0.093 0.151,0.122c0.053,0.026 0.126,0.051 0.176,0.035c0.261,-0.083 0.518,-0.179 0.819,-0.286c-0.481,-0.408 -0.928,-0.787 -1.412,-1.199c-0.026,0.181 -0.045,0.307 -0.07,0.475m6.219,-1.269c0.444,0.394 0.924,0.379 1.422,0.124c-0.609,-0.513 -1.04,-0.588 -1.659,-0.275c0.074,0.047 0.141,0.09 0.237,0.151m-4.682,2.861c-0.123,0.043 -0.246,0.085 -0.369,0.128c-0.35,0.12 -0.46,0.331 -0.357,0.725c0.211,-0 0.429,0.006 0.646,-0.005c0.05,-0.002 0.13,-0.055 0.14,-0.098c0.06,-0.256 0.103,-0.517 0.156,-0.802c-0.09,0.019 -0.136,0.029 -0.216,0.052m9.014,0.664c-0.14,-0.083 -0.276,-0.172 -0.422,-0.245c-0.056,-0.028 -0.154,-0.048 -0.195,-0.019c-0.173,0.125 -0.333,0.269 -0.537,0.439l1.43,0c-0.113,-0.072 -0.179,-0.115 -0.276,-0.175Z" style="fill:#438eff;fill-rule:nonzero;"/><path d="M6.06,27.664c-0.07,-0.364 -0.137,-0.723 -0.162,-1.085c-0.076,-1.099 -0.135,-2.199 -0.204,-3.298c-0.062,-0.978 -0.129,-1.956 -0.195,-2.934c-0.064,-0.953 -0.128,-1.906 -0.195,-2.86c-0.023,-0.322 -0.069,-0.644 -0.079,-0.967c-0.004,-0.158 0.05,-0.317 0.079,-0.494c2.255,-0.021 4.509,-0.024 6.763,-0.026c0.324,-0 0.648,0 0.991,0l0,1.663l-0.3,0c-1.847,0 -3.694,-0 -5.542,0.001c-0.74,-0 -1.061,0.37 -1.006,1.103c0.101,1.33 0.181,2.662 0.269,3.993c0.052,0.795 0.097,1.591 0.157,2.385c0.041,0.55 0.375,0.858 0.929,0.858c5.623,0.002 11.245,0.002 16.868,0c0.564,0 0.896,-0.314 0.933,-0.88c0.138,-2.053 0.27,-4.106 0.405,-6.159c0.006,-0.098 0.018,-0.195 0.026,-0.292c0.051,-0.607 -0.304,-1.004 -0.914,-1.007c-0.887,-0.005 -1.773,-0.002 -2.66,-0.002c-0.993,0 -1.986,0 -2.979,0l-0.304,0l0,-1.66c2.585,-0 5.169,-0 7.78,0.021c0.054,0.228 0.112,0.436 0.102,0.641c-0.029,0.617 -0.086,1.231 -0.127,1.847c-0.055,0.827 -0.101,1.654 -0.158,2.481c-0.074,1.093 -0.158,2.186 -0.231,3.28c-0.057,0.851 -0.097,1.703 -0.161,2.554c-0.021,0.28 -0.092,0.556 -0.14,0.834c-0.049,0.003 -0.097,0.007 -0.146,0.007c-6.592,-0 -13.184,-0.001 -19.799,-0.004Z" style="fill:#e3e7f2;fill-rule:nonzero;"/><path d="M5.4,9.354c0.251,-0.001 0.502,-0.003 0.753,-0.003c6.567,-0 13.134,-0 19.701,-0.001c0.227,-0 0.455,-0.014 0.71,-0.005c0.01,0.093 0.002,0.176 -0.029,0.247c-0.686,1.573 -1.374,3.145 -2.064,4.715c-0.028,0.064 -0.079,0.117 -0.119,0.176c-0.108,-0.426 -0.201,-0.855 -0.332,-1.273c-0.043,-0.141 -0.153,-0.297 -0.278,-0.372c-1.427,-0.857 -2.86,-1.705 -4.302,-2.539c-0.142,-0.081 -0.361,-0.093 -0.527,-0.058c-0.54,0.115 -1.072,0.265 -1.607,0.403c-0.603,0.156 -0.63,0.193 -0.59,0.821c-0.211,-0.014 -0.419,-0.037 -0.627,-0.041c-0.944,-0.02 -1.885,0.028 -2.815,0.21c-0.218,0.043 -0.378,0.005 -0.551,-0.145c-0.73,-0.632 -0.505,-0.588 -1.425,-0.269c-0.837,0.29 -1.669,0.592 -2.507,0.879c-0.246,0.085 -0.361,0.243 -0.404,0.492c-0.142,0.817 -0.297,1.631 -0.468,2.459c-0.067,-0.062 -0.123,-0.133 -0.158,-0.213c-0.618,-1.406 -1.236,-2.812 -1.848,-4.221c-0.181,-0.416 -0.343,-0.841 -0.513,-1.262Z" style="fill:#e3e7f2;fill-rule:nonzero;"/><path d="M7.37,23.505l17.26,-0c-0.035,0.54 -0.063,1.041 -0.104,1.541c-0.004,0.045 -0.086,0.1 -0.142,0.12c-0.058,0.021 -0.129,0.006 -0.194,0.006c-5.46,-0 -10.92,0 -16.38,-0c-0.341,-0 -0.337,-0.001 -0.356,-0.344c-0.023,-0.429 -0.054,-0.856 -0.084,-1.323Z" style="fill:#e2e6f2;fill-rule:nonzero;"/><path d="M7.23,21.057c0.093,-0.037 0.178,-0.07 0.263,-0.07c2.066,-0.003 4.132,-0.006 6.197,0.005c0.154,0.001 0.338,0.073 0.454,0.173c1.01,0.876 2.705,0.875 3.716,-0.004c0.111,-0.096 0.285,-0.168 0.431,-0.169c2.074,-0.011 4.148,-0.005 6.222,-0.011c0.211,-0.001 0.299,0.06 0.277,0.278c-0.039,0.404 -0.058,0.81 -0.105,1.212c-0.008,0.064 -0.106,0.132 -0.178,0.169c-0.051,0.027 -0.127,0.006 -0.192,0.006c-5.547,0 -11.094,-0.001 -16.642,0.006c-0.259,-0 -0.383,-0.048 -0.383,-0.337c-0.001,-0.413 -0.044,-0.826 -0.06,-1.258Z" style="fill:#7daafa;fill-rule:nonzero;"/><path d="M25.576,8.485l-19.142,0c0,-0.252 -0.006,-0.484 0.006,-0.716c0.002,-0.037 0.079,-0.09 0.13,-0.101c0.077,-0.018 0.161,-0.006 0.243,-0.006c6.125,-0 12.25,-0 18.375,0c0.443,0 0.369,-0.033 0.387,0.376c0.006,0.136 0.001,0.273 0.001,0.447Z" style="fill:#e0e5f2;fill-rule:nonzero;"/><path d="M15.951,5.992c2.944,-0 5.864,0.001 8.784,-0.004c0.157,-0.001 0.267,0.037 0.337,0.178c0.099,0.2 0.2,0.399 0.32,0.636l-18.796,0c0.151,-0.274 0.265,-0.512 0.41,-0.73c0.039,-0.059 0.17,-0.078 0.259,-0.078c2.887,-0.003 5.775,-0.002 8.686,-0.002Z" style="fill:#7eabfa;fill-rule:nonzero;"/><path d="M18.088,16.977c-0.01,0.739 0.015,1.457 -0.04,2.169c-0.065,0.84 -0.548,1.422 -1.327,1.71c-0.82,0.304 -1.571,0.127 -2.201,-0.487c-0.419,-0.408 -0.599,-0.925 -0.605,-1.499c-0.009,-0.911 -0.002,-1.822 -0.001,-2.733c-0,-0.031 0.008,-0.063 0.016,-0.116l4.158,0l-0,0.956m-0.861,1.3c0.069,-0.63 -0.241,-1.16 -0.794,-1.36c-0.555,-0.201 -1.167,0.002 -1.479,0.489c-0.315,0.491 -0.28,1.17 0.169,1.538c0.307,0.252 0.513,0.48 0.492,0.899c-0.01,0.194 0.171,0.307 0.374,0.311c0.213,0.004 0.36,-0.103 0.403,-0.314c0.026,-0.126 0.003,-0.263 0.035,-0.387c0.024,-0.096 0.076,-0.216 0.153,-0.261c0.343,-0.203 0.561,-0.487 0.647,-0.915Z" style="fill:#e1e6f2;fill-rule:nonzero;"/><path d="M19.662,5.163l-11.661,0c-0.008,-0.019 -0.016,-0.039 -0.025,-0.059c0.217,-0.111 0.427,-0.234 0.65,-0.329c0.682,-0.291 1.402,-0.431 2.138,-0.433c3.489,-0.009 6.979,-0.011 10.468,0.001c0.861,0.003 1.695,0.185 2.47,0.583c0.107,0.055 0.208,0.121 0.304,0.237c-1.44,0 -2.88,0 -4.344,0Z" style="fill:#e2e6f2;fill-rule:nonzero;"/><path d="M7.04,18.496l5.977,-0c0.088,0.559 0.171,1.09 0.258,1.649c-0.037,0.003 -0.113,0.016 -0.188,0.016c-1.895,0.001 -3.79,-0.002 -5.685,0.005c-0.194,0 -0.277,-0.05 -0.283,-0.254c-0.015,-0.46 -0.05,-0.92 -0.079,-1.416Z" style="fill:#e2e6f2;fill-rule:nonzero;"/><path d="M18.986,18.496l5.976,-0c-0.034,0.536 -0.062,1.037 -0.103,1.537c-0.004,0.046 -0.085,0.106 -0.14,0.122c-0.076,0.021 -0.161,0.007 -0.243,0.007c-1.822,-0 -3.644,-0 -5.466,-0c-0.104,-0 -0.208,-0 -0.291,-0c0.089,-0.555 0.174,-1.088 0.267,-1.666Z" style="fill:#e2e6f2;fill-rule:nonzero;"/><path d="M26.027,27.664c0.026,-0.281 0.097,-0.557 0.118,-0.837c0.064,-0.851 0.104,-1.703 0.161,-2.554c0.073,-1.094 0.157,-2.187 0.231,-3.28c0.057,-0.827 0.103,-1.654 0.158,-2.481c0.041,-0.616 0.098,-1.23 0.127,-1.847c0.01,-0.205 -0.048,-0.413 -0.08,-0.638c0.125,-0.021 0.256,-0.03 0.385,-0.025c0.337,0.014 0.501,0.204 0.478,0.54c-0.094,1.419 -0.185,2.837 -0.282,4.255c-0.123,1.816 -0.25,3.631 -0.376,5.446c-0.02,0.292 -0.039,0.584 -0.054,0.876c-0.021,0.413 -0.159,0.548 -0.575,0.55c-0.089,0.001 -0.178,-0.002 -0.291,-0.005Z" style="fill:#a4c2f7;fill-rule:nonzero;"/><path d="M17.202,15.167l-2.504,-0c0.084,-0.469 0.15,-0.915 0.249,-1.354c0.059,-0.265 -0.007,-0.452 -0.214,-0.619c-0.308,-0.248 -0.603,-0.511 -0.963,-0.819c0.497,-0.042 0.921,-0.1 1.346,-0.11c0.503,-0.011 1.006,0.02 1.509,0.034c0.131,0.003 0.23,0.028 0.251,0.195c0.106,0.853 0.223,1.706 0.335,2.559c0.003,0.023 -0.003,0.048 -0.009,0.114Z" style="fill:#e1e6f2;fill-rule:nonzero;"/><path d="M24.354,14.501c0.038,-0.077 0.089,-0.13 0.117,-0.194c0.69,-1.57 1.378,-3.142 2.064,-4.715c0.031,-0.071 0.039,-0.154 0.05,-0.248c0.265,-0.017 0.536,-0.017 0.857,-0.017c-0.149,0.349 -0.275,0.652 -0.407,0.953c-0.675,1.546 -1.352,3.091 -2.028,4.637c-0.059,0.137 -0.114,0.29 -0.304,0.246c-0.077,-0.018 -0.172,-0.085 -0.202,-0.154c-0.068,-0.155 -0.099,-0.325 -0.147,-0.508Z" style="fill:#7dabfa;fill-rule:nonzero;"/><path d="M26.418,5.533c0.807,0.818 1.215,1.785 1.249,2.957c-0.399,-0 -0.777,0.006 -1.155,-0.011c-0.036,-0.001 -0.095,-0.149 -0.095,-0.228c-0.002,-0.614 -0.067,-1.216 -0.283,-1.796c-0.271,-0.727 -0.712,-1.328 -1.322,-1.805c-0.036,-0.029 -0.079,-0.05 -0.099,-0.098c0.659,0.169 1.212,0.507 1.705,0.981Z" style="fill:#e1e6f2;fill-rule:nonzero;"/><path d="M18.932,15.15c0.114,-0.74 0.245,-1.471 0.382,-2.237c0.745,0.441 1.448,0.856 2.177,1.287c-0.385,0.32 -0.738,0.617 -1.098,0.906c-0.05,0.041 -0.133,0.059 -0.201,0.06c-0.414,0.003 -0.828,-0.003 -1.26,-0.016Z" style="fill:#e1e6f2;fill-rule:nonzero;"/><path d="M11.216,15.169c-0.882,0.009 -0.73,0.009 -0.634,-0.724c0.039,-0.297 0.201,-0.383 0.442,-0.489c0.381,-0.168 0.687,-0.17 0.955,0.18c0.087,0.113 0.274,0.202 0.282,0.311c0.014,0.211 -0.059,0.431 -0.115,0.642c-0.011,0.039 -0.113,0.074 -0.174,0.076c-0.244,0.008 -0.488,0.003 -0.756,0.004Z" style="fill:#e1e6f2;fill-rule:nonzero;"/><path d="M17.759,12.875c-0.038,-0.31 -0.075,-0.599 -0.12,-0.948c0.313,0.184 0.582,0.331 0.835,0.501c0.048,0.032 0.061,0.159 0.047,0.235c-0.14,0.758 -0.29,1.515 -0.483,2.278c-0.092,-0.681 -0.185,-1.363 -0.279,-2.066Z" style="fill:#dee4f2;fill-rule:nonzero;"/><path d="M10.306,12.455c0.399,-0.14 0.78,-0.273 1.194,-0.417c-0.034,0.296 -0.058,0.56 -0.101,0.821c-0.009,0.054 -0.082,0.112 -0.14,0.141c-0.101,0.05 -0.212,0.079 -0.319,0.117c-0.701,0.245 -0.806,0.211 -1.29,-0.425c0.217,-0.078 0.428,-0.154 0.656,-0.237Z" style="fill:#e0e5f2;fill-rule:nonzero;"/><path d="M8.854,14.707c0.082,-0.441 0.159,-0.861 0.248,-1.346c0.25,0.235 0.464,0.427 0.664,0.633c0.039,0.039 0.033,0.138 0.023,0.206c-0.097,0.695 -0.098,0.695 -0.77,0.915c-0.068,0.023 -0.138,0.037 -0.246,0.066c0.029,-0.172 0.052,-0.313 0.081,-0.474Z" style="fill:#e0e5f2;fill-rule:nonzero;"/><path d="M12.26,12.7c0.022,-0.147 0.041,-0.273 0.067,-0.454c0.484,0.412 0.931,0.791 1.412,1.199c-0.301,0.107 -0.558,0.203 -0.819,0.286c-0.05,0.016 -0.123,-0.009 -0.176,-0.035c-0.056,-0.029 -0.095,-0.09 -0.151,-0.122c-0.338,-0.197 -0.457,-0.477 -0.333,-0.874Z" style="fill:#e0e5f2;fill-rule:nonzero;"/><path d="M5.183,8.488c0.021,-1.009 0.29,-1.935 0.92,-2.738c0.028,-0.036 0.072,-0.061 0.126,-0.094c-0.463,0.813 -0.673,1.695 -0.642,2.639c0.011,0.326 -0.24,0.16 -0.404,0.193Z" style="fill:#e0e5f2;fill-rule:nonzero;"/><path d="M21.519,13.214c-0.458,-0.253 -0.916,-0.507 -1.437,-0.796c0.319,-0.085 0.564,-0.157 0.812,-0.213c0.145,-0.033 0.431,0.16 0.472,0.311c0.058,0.22 0.105,0.442 0.154,0.682c-0.003,0.019 -0.001,0.016 -0.001,0.016Z" style="fill:#dee4f2;fill-rule:nonzero;"/><path d="M18.462,11.443c-0.082,-0.052 -0.149,-0.095 -0.223,-0.142c0.619,-0.313 1.05,-0.238 1.659,0.275c-0.498,0.255 -0.978,0.27 -1.436,-0.133Z" style="fill:#dee4f2;fill-rule:nonzero;"/><path d="M23.416,14.346c-0.254,-0.142 -0.511,-0.28 -0.759,-0.431c-0.054,-0.033 -0.095,-0.109 -0.113,-0.174c-0.066,-0.224 -0.119,-0.452 -0.181,-0.693c0.62,0.208 1.051,0.548 1.068,1.263c-0.005,0.025 -0.015,0.035 -0.015,0.035Z" style="fill:#dee4f2;fill-rule:nonzero;"/><path d="M13.811,14.306c0.063,-0.016 0.109,-0.026 0.199,-0.045c-0.053,0.285 -0.096,0.546 -0.156,0.802c-0.01,0.043 -0.09,0.096 -0.14,0.098c-0.217,0.011 -0.435,0.005 -0.646,0.005c-0.103,-0.394 0.007,-0.605 0.357,-0.725c0.123,-0.043 0.246,-0.086 0.386,-0.135Z" style="fill:#a1c1f7;fill-rule:nonzero;"/><path d="M22.823,14.985c0.082,0.052 0.148,0.094 0.261,0.167l-1.43,0c0.204,-0.17 0.364,-0.314 0.537,-0.439c0.041,-0.029 0.139,-0.009 0.195,0.019c0.146,0.073 0.282,0.162 0.437,0.253Z" style="fill:#dee4f2;fill-rule:nonzero;"/><path d="M6.295,5.591c-0.003,-0.018 0.007,-0.044 0.027,-0.08c0.002,0.018 -0.006,0.045 -0.027,0.08Z" style="fill:#e0e5f2;fill-rule:nonzero;"/><path d="M23.431,14.331c0.008,0.007 0.011,0.02 0.014,0.032c-0.007,-0.001 -0.014,-0.001 -0.025,-0.009c-0.004,-0.008 0.006,-0.018 0.011,-0.023Z" style="fill:#dee4f2;fill-rule:nonzero;"/><path d="M21.516,13.218c-0.001,0.001 0.016,0.005 0.016,0.005c-0,-0 -0.012,0.001 -0.013,-0.004c-0,-0.005 -0.002,-0.002 -0.003,-0.001Z" style="fill:#dee4f2;fill-rule:nonzero;"/><path d="M4.553,19.595c0.087,0.277 0.035,0.458 -0.156,0.558c-0.176,0.092 -0.35,0.076 -0.488,-0.068c-0.145,-0.15 -0.167,-0.33 -0.053,-0.511c0.159,-0.252 0.465,-0.247 0.697,0.021Z" style="fill:#448eff;fill-rule:nonzero;"/><path d="M17.225,18.296c-0.084,0.409 -0.302,0.693 -0.645,0.896c-0.077,0.045 -0.129,0.165 -0.153,0.261c-0.032,0.124 -0.009,0.261 -0.035,0.387c-0.043,0.211 -0.19,0.318 -0.403,0.314c-0.203,-0.004 -0.384,-0.117 -0.374,-0.311c0.021,-0.419 -0.185,-0.647 -0.492,-0.899c-0.449,-0.368 -0.484,-1.047 -0.169,-1.538c0.312,-0.487 0.924,-0.69 1.479,-0.489c0.553,0.2 0.863,0.73 0.792,1.379m-0.848,-0.064c0.051,-0.377 -0.159,-0.628 -0.463,-0.546c-0.181,0.049 -0.298,0.16 -0.311,0.359c-0.012,0.202 0.068,0.355 0.262,0.419c0.21,0.071 0.382,0.002 0.512,-0.232Z" style="fill:#448eff;fill-rule:nonzero;"/><path d="M16.368,18.25c-0.121,0.216 -0.293,0.285 -0.503,0.214c-0.194,-0.064 -0.274,-0.217 -0.262,-0.419c0.013,-0.199 0.13,-0.31 0.311,-0.359c0.304,-0.082 0.514,0.169 0.454,0.564Z" style="fill:#a1c1f7;fill-rule:nonzero;"/></g></svg>