<?xml version="1.0" encoding="UTF-8" standalone="no"?><!DOCTYPE svg PUBLIC "-//W3C//DTD SVG 1.1//EN" "http://www.w3.org/Graphics/SVG/1.1/DTD/svg11.dtd"><svg width="100%" height="100%" viewBox="0 0 512 512" version="1.1" xmlns="http://www.w3.org/2000/svg" xmlns:xlink="http://www.w3.org/1999/xlink" xml:space="preserve" xmlns:serif="http://www.serif.com/" style="fill-rule:evenodd;clip-rule:evenodd;stroke-linejoin:round;stroke-miterlimit:2;"><g id="stash"><path d="M31,132.074c0,-7.342 0,-14.685 0.314,-22.618c0.508,-2.462 0.494,-4.384 0.933,-6.197c2.508,-10.368 5.874,-20.358 11.635,-29.509c11.079,-17.598 26.051,-30.379 45.647,-37.402c6.384,-2.288 13.119,-3.593 19.694,-5.348c97.577,-0 195.154,-0 293.321,0.314c2.462,0.508 4.384,0.494 6.197,0.933c10.368,2.508 20.358,5.874 29.509,11.635c17.598,11.079 30.379,26.051 37.402,45.647c2.288,6.384 3.593,13.119 5.348,19.694c-0,7.342 -0,14.685 -0.29,22.577c-0.722,1.768 -1.074,3.022 -1.597,4.2c-5.722,12.884 -11.527,25.732 -17.2,38.637c-7.986,18.166 -15.895,36.366 -23.799,54.567c-1.519,3.496 -2.868,7.066 -4.261,10.519c9.342,0.46 18.219,0.713 27.064,1.381c10.357,0.782 19.52,10.635 19.122,21.007c-0.528,13.762 -1.656,27.502 -2.535,41.25c-0.879,13.749 -1.821,27.495 -2.636,41.248c-0.67,11.308 -1.177,22.625 -1.789,33.937c-0.251,4.634 -0.548,9.267 -0.894,13.895c-1.145,15.308 -2.38,30.609 -3.459,45.922c-0.46,6.523 -0.494,13.077 -0.979,19.598c-0.199,2.682 -0.819,5.403 -1.695,7.952c-2.649,7.706 -8.119,12.597 -15.814,15.087c-129.217,0 -258.435,0 -388.21,-0.295c-8.362,-0.918 -16.406,-11.101 -16.92,-17.875c-0.994,-13.113 -1.686,-26.248 -2.582,-39.368c-0.696,-10.201 -1.592,-20.388 -2.254,-30.59c-0.805,-12.4 -1.566,-24.806 -2.123,-37.219c-0.228,-5.06 2.667,-8.241 6.966,-8.459c4.443,-0.226 7.445,2.582 7.903,7.556c0.362,3.935 0.583,7.883 0.849,11.826c1.917,28.334 4.074,56.653 5.642,85.006c0.823,14.893 3.68,14.875 17.57,14.368c119.067,0.063 237.723,0.072 356.38,0.075c0.876,0 1.751,-0.08 3.035,-0.08c2.018,0.062 3.628,0.106 5.237,0.097c7.478,-0.045 9.963,-2.471 10.341,-9.905c0.267,-5.258 0.62,-10.511 0.982,-15.763c2.251,-32.674 4.545,-65.345 6.766,-98.021c1.735,-25.528 3.374,-51.062 5.077,-76.593c0.404,-6.047 -2.538,-9.47 -8.608,-9.719c-2.334,-0.096 -4.679,0.069 -7.422,0.064c-46.91,-0.051 -93.417,-0.051 -139.947,-0.051l-0,29.886l5.48,-0c17.869,-0 35.738,-0.001 53.606,-0c15.965,0 31.93,-0.064 47.894,0.025c10.973,0.061 17.358,7.203 16.442,18.13c-0.147,1.751 -0.353,3.498 -0.468,5.25c-2.425,36.957 -4.808,73.916 -7.278,110.87c-0.681,10.184 -6.657,15.839 -16.803,15.843c-101.207,0.035 -202.414,0.035 -303.62,-0c-9.967,-0.004 -15.984,-5.541 -16.727,-15.442c-1.073,-14.303 -1.888,-28.625 -2.832,-42.938c-1.58,-23.958 -3.024,-47.926 -4.825,-71.867c-0.993,-13.207 4.785,-19.864 18.108,-19.868c33.248,-0.01 66.495,-0.003 99.743,-0.003l5.409,-0l0,-29.937c-6.176,-0 -12.009,-0.005 -17.842,0.001c-40.568,0.039 -81.137,0.081 -122.106,0.073c-1.718,-0.058 -3.035,-0.074 -4.353,-0.074c-9.984,-0.004 -12.147,2.419 -11.388,12.349c0.624,8.171 1.125,16.353 1.543,24.537c0.262,5.121 -2.268,8.39 -6.525,8.844c-4.399,0.47 -8.121,-2.576 -8.497,-7.537c-0.814,-10.753 -1.447,-21.523 -1.963,-32.295c-0.255,-5.324 2.249,-9.689 5.537,-13.705c5.403,-6.6 12.924,-7.718 20.688,-7.973c6.552,-0.216 13.118,-0.045 20.279,-0.045c-1.746,-4.141 -3.25,-7.855 -4.868,-11.52c-6.799,-15.398 -13.659,-30.769 -20.446,-46.172c-7.398,-16.791 -14.741,-33.607 -22.108,-50.412m358.641,94.43c0.121,0.011 0.243,0.021 0.365,0.032c-0.05,-0.226 -0.099,-0.452 -0.15,-1.384c-0.399,-12.421 -8.156,-18.547 -19.314,-22.295c1.108,4.343 2.064,8.444 3.241,12.481c0.339,1.164 1.069,2.547 2.04,3.137c4.475,2.719 9.099,5.193 13.818,8.029m-34.283,-20.474l0.21,-0.019c0,0 -0.301,-0.072 -0.144,-0.794c-0.938,-3.976 -1.785,-7.977 -2.844,-11.921c-0.734,-2.734 -5.875,-6.192 -8.496,-5.604c-4.463,1.002 -8.859,2.299 -14.613,3.825c9.384,5.203 17.627,9.773 25.887,14.513m-274.589,-136.5c0.187,-0.218 0.289,-0.469 0.772,-1.026c0.148,-0.495 0.296,-0.989 0.76,-1.979c5.334,-5.833 10.668,-11.667 14.931,-16.329c-28.595,7.211 -52.638,40.139 -50.65,70.442c0.667,0.091 1.37,0.275 2.071,0.268c4.084,-0.038 8.168,-0.121 13.034,-0.041c2.56,-0.681 7.077,2.318 6.885,-3.562c-0.556,-16.979 3.225,-32.863 12.197,-47.773m30.167,169.135c2.692,-14.671 5.468,-29.328 8.026,-44.022c0.782,-4.491 2.847,-7.336 7.279,-8.854c15.08,-5.166 30.062,-10.613 45.123,-15.832c16.562,-5.739 12.518,-6.522 25.648,4.852c3.113,2.697 6,3.377 9.926,2.607c16.726,-3.28 33.664,-4.136 50.672,-3.783c3.741,0.077 7.475,0.485 11.284,0.745c-0.725,-11.318 -0.239,-11.98 10.612,-14.778c9.629,-2.483 19.211,-5.194 28.931,-7.253c2.992,-0.634 6.931,-0.429 9.481,1.044c25.952,14.997 51.747,30.266 77.443,45.698c2.238,1.344 4.218,4.15 5.007,6.685c2.341,7.528 4.027,15.26 6.024,23.586c0.835,2.949 1.409,6.013 2.624,8.796c0.546,1.248 2.255,2.448 3.646,2.776c3.404,0.8 4.393,-1.959 5.469,-4.422c12.16,-27.826 24.344,-55.642 36.5,-83.47c2.367,-5.417 4.643,-10.873 7.319,-17.153c-5.767,0 -10.652,0 -16.297,0.042c-4.096,0.127 -8.192,0.366 -12.288,0.366c-118.205,0.02 -236.41,0.016 -354.614,0.019c-4.517,0.001 -9.034,0.043 -14.313,-0.177l-14.277,0c0.939,2.304 1.558,3.923 2.252,5.509c13.045,29.816 26.1,59.627 39.149,89.441c4.789,10.94 4.788,10.973 16.599,9.876c0.887,-0.082 1.692,-1.046 2.775,-2.298m138.472,152.42l-148.752,0c0.542,8.404 1.099,16.104 1.518,23.813c0.335,6.188 0.261,6.196 6.406,6.197c98.28,0.001 196.561,0 294.841,-0.001c1.172,0 2.447,0.274 3.485,-0.102c1.017,-0.369 2.498,-1.348 2.565,-2.159c0.741,-9.005 1.247,-18.03 1.86,-27.748c-53.946,-0 -107.495,-0 -161.923,0m-151.432,-43.704c0.45,7.427 1.225,14.854 1.237,22.282c0.009,5.216 2.247,6.07 6.91,6.064c99.847,-0.123 199.695,-0.094 299.543,-0.094c1.171,-0 2.541,0.368 3.465,-0.114c1.286,-0.67 3.062,-1.886 3.196,-3.035c0.841,-7.25 1.19,-14.556 1.899,-21.824c0.382,-3.925 -1.193,-5.013 -4.994,-5.002c-37.333,0.112 -74.666,0.006 -111.998,0.201c-2.619,0.013 -5.762,1.306 -7.759,3.042c-18.19,15.814 -48.698,15.837 -66.881,0.077c-2.091,-1.812 -5.408,-3.102 -8.165,-3.117c-37.185,-0.202 -74.372,-0.147 -111.559,-0.095c-1.527,0.002 -3.053,0.596 -4.894,1.615m-7.586,-226.645l337.984,0c-0,-3.135 0.091,-5.599 -0.017,-8.055c-0.325,-7.356 1,-6.759 -6.976,-6.76c-110.251,-0.01 -220.502,-0.007 -330.754,-0.006c-1.464,0 -2.979,-0.21 -4.374,0.106c-0.904,0.205 -2.295,1.154 -2.33,1.829c-0.216,4.163 -0.108,8.343 -0.108,12.886c2.249,0 3.982,0 6.575,0m164.292,-44.877c-51.97,-0.007 -103.939,-0.026 -155.908,0.037c-1.601,0.002 -3.965,0.343 -4.666,1.396c-2.607,3.921 -4.669,8.206 -7.371,13.152l338.311,0c-2.152,-4.282 -3.968,-7.859 -5.75,-11.453c-1.263,-2.548 -3.249,-3.22 -6.073,-3.215c-52.555,0.092 -105.11,0.076 -158.543,0.083m38.899,197.28l0,-16.752l-74.842,0c-0.135,0.945 -0.288,1.514 -0.288,2.084c-0.015,16.398 -0.143,32.799 0.028,49.196c0.108,10.322 3.346,19.633 10.873,26.97c11.343,11.056 24.859,14.245 39.628,8.772c14.014,-5.192 22.721,-15.665 23.883,-30.784c0.984,-12.812 0.534,-25.734 0.718,-39.486m28.776,-212.197l77.752,0c-1.726,-2.099 -3.553,-3.277 -5.477,-4.267c-13.947,-7.171 -28.952,-10.448 -44.457,-10.502c-62.806,-0.217 -125.614,-0.185 -188.421,-0.012c-13.248,0.037 -26.207,2.55 -38.479,7.781c-4.014,1.711 -7.809,3.936 -11.703,5.926c0.15,0.358 0.3,0.716 0.45,1.075c69.819,-0 139.638,-0 210.335,-0.001m-183.691,239.98l-43.94,-0c0.518,8.929 1.147,17.208 1.412,25.498c0.117,3.674 1.601,4.573 5.09,4.561c34.112,-0.115 68.226,-0.065 102.339,-0.085c1.358,-0.001 2.716,-0.229 3.39,-0.289c-1.573,-10.053 -3.072,-19.626 -4.647,-29.685c-20.663,-0 -41.714,-0 -63.644,-0m239.063,-0l-67.981,-0c-1.671,10.415 -3.208,20 -4.81,29.991c1.496,-0 3.373,-0.001 5.249,-0.001c32.796,0 65.591,0.001 98.387,-0.001c1.464,0 3.008,0.262 4.365,-0.123c1.001,-0.284 2.452,-1.368 2.519,-2.193c0.74,-8.996 1.247,-18.012 1.858,-27.673c-13.325,-0 -26.017,-0 -39.587,-0m-119.532,-59.919l19.44,-0c0.101,-1.191 0.219,-1.635 0.163,-2.056c-2.018,-15.351 -4.115,-30.692 -6.031,-46.056c-0.375,-3.01 -2.165,-3.453 -4.515,-3.515c-9.053,-0.241 -18.114,-0.799 -27.157,-0.601c-7.656,0.167 -15.292,1.213 -24.228,1.981c6.47,5.53 11.786,10.271 17.323,14.739c3.726,3.007 4.918,6.37 3.846,11.145c-1.774,7.896 -2.963,15.922 -4.482,24.363c8.73,-0 16.746,-0 25.641,-0m185.103,-173.626c-8.655,-8.323 -18.612,-14.403 -30.458,-17.436c0.355,0.868 1.119,1.245 1.776,1.759c10.98,8.595 18.914,19.4 23.792,32.491c3.893,10.448 5.068,21.269 5.09,32.319c0.003,1.438 1.061,4.091 1.723,4.121c6.792,0.306 13.604,0.188 20.78,0.188c-0.607,-21.088 -7.958,-38.499 -22.703,-53.442m-134.207,173.518c7.453,0.045 14.907,0.139 22.36,0.086c1.226,-0.009 2.712,-0.332 3.628,-1.069c6.469,-5.205 12.82,-10.555 19.757,-16.313c-13.129,-7.76 -25.771,-15.233 -39.19,-23.165c-2.468,13.787 -4.821,26.938 -6.555,40.461m-138.768,0.139c4.39,-0.002 8.783,0.088 13.168,-0.068c1.102,-0.039 2.945,-0.659 3.133,-1.363c1.015,-3.801 2.325,-7.759 2.067,-11.564c-0.133,-1.961 -3.511,-3.561 -5.069,-5.594c-4.831,-6.304 -10.341,-6.263 -17.199,-3.235c-4.332,1.913 -7.241,3.463 -7.942,8.792c-1.736,13.197 -4.479,13.197 11.842,13.032m117.371,-40.89c1.662,12.268 3.323,24.535 4.984,36.803c3.478,-13.739 6.172,-27.361 8.703,-41.014c0.252,-1.359 0.016,-3.651 -0.85,-4.231c-4.561,-3.055 -9.396,-5.698 -15.032,-9.011c0.804,6.286 1.468,11.478 2.195,17.453m-134.51,-7.818c-3.788,1.361 -7.575,2.722 -11.483,4.127c8.706,11.458 10.602,12.061 23.217,7.65c1.927,-0.674 3.929,-1.202 5.743,-2.106c1.035,-0.517 2.358,-1.559 2.52,-2.535c0.777,-4.698 1.203,-9.453 1.822,-14.782c-7.458,2.598 -14.32,4.988 -21.819,7.646m-25.902,40.774c-0.425,2.528 -0.85,5.055 -1.37,8.151c1.947,-0.512 3.207,-0.775 4.424,-1.174c12.101,-3.972 12.124,-3.975 13.871,-16.479c0.172,-1.224 0.276,-2.996 -0.418,-3.712c-3.595,-3.71 -7.459,-7.16 -11.963,-11.39c-1.598,8.724 -2.986,16.298 -4.544,24.604m61.337,-36.128c-2.168,6.77 -0.028,11.815 6.056,15.357c0.997,0.58 1.706,1.678 2.723,2.193c0.94,0.477 2.252,0.928 3.162,0.639c4.702,-1.494 9.328,-3.229 14.733,-5.147c-8.648,-7.341 -16.7,-14.177 -25.417,-21.577c-0.467,3.244 -0.794,5.509 -1.257,8.535m111.952,-22.836c7.986,7.098 16.629,6.826 25.586,2.231c-10.963,-9.24 -18.718,-10.577 -29.85,-4.94c1.321,0.842 2.53,1.613 4.264,2.709m-84.29,51.496c-2.209,0.767 -4.416,1.54 -6.628,2.298c-6.307,2.161 -8.28,5.963 -6.436,13.055c3.802,-0 7.725,0.11 11.634,-0.083c0.899,-0.045 2.342,-0.994 2.52,-1.762c1.071,-4.619 1.846,-9.306 2.811,-14.45c-1.632,0.35 -2.459,0.527 -3.901,0.942m162.268,11.947c-2.522,-1.486 -4.983,-3.094 -7.597,-4.395c-1.015,-0.506 -2.775,-0.878 -3.508,-0.352c-3.13,2.245 -6.002,4.849 -9.677,7.912l25.735,0c-2.032,-1.313 -3.221,-2.081 -4.953,-3.165Z" style="fill:#438eff;fill-rule:nonzero;"/><path d="M77.079,465.95c-1.267,-6.544 -2.463,-13.01 -2.916,-19.528c-1.375,-19.78 -2.421,-39.582 -3.674,-59.37c-1.115,-17.603 -2.326,-35.2 -3.51,-52.798c-1.155,-17.162 -2.3,-34.324 -3.51,-51.481c-0.41,-5.812 -1.24,-11.605 -1.413,-17.42c-0.084,-2.834 0.902,-5.699 1.425,-8.888c40.589,-0.38 81.158,-0.422 121.726,-0.461c5.833,-0.006 11.666,-0.001 17.842,-0.001l0,29.937l-5.409,-0c-33.248,-0 -66.495,-0.007 -99.743,0.003c-13.323,0.004 -19.101,6.661 -18.108,19.868c1.801,23.941 3.245,47.909 4.825,71.867c0.944,14.313 1.759,28.635 2.832,42.938c0.743,9.901 6.76,15.438 16.727,15.442c101.206,0.035 202.413,0.035 303.62,0c10.146,-0.004 16.122,-5.659 16.803,-15.843c2.47,-36.954 4.853,-73.913 7.278,-110.87c0.115,-1.752 0.321,-3.499 0.468,-5.25c0.916,-10.927 -5.469,-18.069 -16.442,-18.13c-15.964,-0.089 -31.929,-0.025 -47.894,-0.025c-17.868,-0.001 -35.737,-0 -53.606,-0l-5.48,-0l-0,-29.886c46.53,-0 93.037,-0 140.035,0.373c0.977,4.101 2.013,7.854 1.842,11.55c-0.515,11.093 -1.555,22.159 -2.291,33.243c-0.988,14.879 -1.823,29.769 -2.834,44.647c-1.339,19.687 -2.844,39.362 -4.165,59.05c-1.029,15.317 -1.75,30.655 -2.896,45.962c-0.377,5.042 -1.657,10.017 -2.525,15.023c-0.876,0.043 -1.751,0.123 -2.627,0.123c-118.657,-0.003 -237.313,-0.012 -356.38,-0.075Z" style="fill:#e3e7f2;fill-rule:nonzero;"/><path d="M65.2,136.379c4.517,-0.022 9.034,-0.064 13.551,-0.065c118.204,-0.003 236.409,0.001 354.614,-0.019c4.096,-0 8.192,-0.239 12.79,-0.079c0.17,1.676 0.039,3.154 -0.524,4.444c-12.345,28.308 -24.73,56.599 -37.15,84.875c-0.503,1.143 -1.42,2.105 -2.143,3.151c-1.943,-7.652 -3.629,-15.384 -5.97,-22.912c-0.789,-2.535 -2.769,-5.341 -5.007,-6.685c-25.696,-15.432 -51.491,-30.701 -77.443,-45.698c-2.55,-1.473 -6.489,-1.678 -9.481,-1.044c-9.72,2.059 -19.302,4.77 -28.931,7.253c-10.851,2.798 -11.337,3.46 -10.612,14.778c-3.809,-0.26 -7.543,-0.668 -11.284,-0.745c-17.008,-0.353 -33.946,0.503 -50.672,3.783c-3.926,0.77 -6.813,0.09 -9.926,-2.607c-13.13,-11.374 -9.086,-10.591 -25.648,-4.852c-15.061,5.219 -30.043,10.666 -45.123,15.832c-4.432,1.518 -6.497,4.363 -7.279,8.854c-2.558,14.694 -5.334,29.351 -8.412,44.252c-1.215,-1.119 -2.217,-2.393 -2.849,-3.829c-11.128,-25.31 -22.259,-50.62 -33.275,-75.979c-3.255,-7.491 -6.161,-15.134 -9.226,-22.708Z" style="fill:#e3e7f2;fill-rule:nonzero;"/><path d="M249.848,391.085c53.988,-0 107.537,-0 161.483,-0c-0.613,9.718 -1.119,18.743 -1.86,27.748c-0.067,0.811 -1.548,1.79 -2.565,2.159c-1.038,0.376 -2.313,0.102 -3.485,0.102c-98.28,0.001 -196.561,0.002 -294.841,0.001c-6.145,-0.001 -6.071,-0.009 -6.406,-6.197c-0.419,-7.709 -0.976,-15.409 -1.518,-23.813c49.856,0 99.304,0 149.192,0Z" style="fill:#e2e6f2;fill-rule:nonzero;"/><path d="M98.134,347.03c1.683,-0.668 3.209,-1.262 4.736,-1.264c37.187,-0.052 74.374,-0.107 111.559,0.095c2.757,0.015 6.074,1.305 8.165,3.117c18.183,15.76 48.691,15.737 66.881,-0.077c1.997,-1.736 5.14,-3.029 7.759,-3.042c37.332,-0.195 74.665,-0.089 111.998,-0.201c3.801,-0.011 5.376,1.077 4.994,5.002c-0.709,7.268 -1.058,14.574 -1.899,21.824c-0.134,1.149 -1.91,2.365 -3.196,3.035c-0.924,0.482 -2.294,0.114 -3.465,0.114c-99.848,0 -199.696,-0.029 -299.543,0.094c-4.663,0.006 -6.901,-0.848 -6.91,-6.064c-0.012,-7.428 -0.787,-14.855 -1.079,-22.633Z" style="fill:#7daafa;fill-rule:nonzero;"/><path d="M89.96,120.736c-2.163,0 -3.896,0 -6.145,0c-0,-4.543 -0.108,-8.723 0.108,-12.886c0.035,-0.675 1.426,-1.624 2.33,-1.829c1.395,-0.316 2.91,-0.106 4.374,-0.106c110.252,-0.001 220.503,-0.004 330.754,0.006c7.976,0.001 6.651,-0.596 6.976,6.76c0.108,2.456 0.017,4.92 0.017,8.055c-112.924,0 -225.454,0 -338.414,0Z" style="fill:#e0e5f2;fill-rule:nonzero;"/><path d="M255.121,75.859c52.994,-0.007 105.549,0.009 158.104,-0.083c2.824,-0.005 4.81,0.667 6.073,3.215c1.782,3.594 3.598,7.171 5.75,11.453l-338.311,0c2.702,-4.946 4.764,-9.231 7.371,-13.152c0.701,-1.053 3.065,-1.394 4.666,-1.396c51.969,-0.063 103.938,-0.044 156.347,-0.037Z" style="fill:#7eabfa;fill-rule:nonzero;"/><path d="M293.581,273.579c-0.184,13.312 0.266,26.234 -0.718,39.046c-1.162,15.119 -9.869,25.592 -23.883,30.784c-14.769,5.473 -28.285,2.284 -39.628,-8.772c-7.527,-7.337 -10.765,-16.648 -10.873,-26.97c-0.171,-16.397 -0.043,-32.798 -0.028,-49.196c0,-0.57 0.153,-1.139 0.288,-2.084l74.842,0c0,5.492 0,11.122 0,17.192m-15.498,23.4c1.242,-11.332 -4.331,-20.881 -14.285,-24.477c-9.986,-3.607 -21.007,0.035 -26.624,8.8c-5.664,8.836 -5.038,21.058 3.032,27.681c5.532,4.54 9.246,8.643 8.868,16.186c-0.176,3.503 3.07,5.522 6.722,5.598c3.849,0.08 6.485,-1.844 7.268,-5.65c0.466,-2.267 0.055,-4.729 0.615,-6.958c0.434,-1.725 1.371,-3.887 2.761,-4.71c6.177,-3.655 10.106,-8.752 11.643,-16.47Z" style="fill:#e1e6f2;fill-rule:nonzero;"/><path d="M321.918,60.943c-70.258,-0 -140.077,-0 -209.896,-0c-0.15,-0.359 -0.3,-0.717 -0.45,-1.075c3.894,-1.99 7.689,-4.215 11.703,-5.926c12.272,-5.231 25.231,-7.744 38.479,-7.781c62.807,-0.173 125.615,-0.205 188.421,0.012c15.505,0.054 30.51,3.331 44.457,10.502c1.924,0.99 3.751,2.168 5.477,4.267c-25.917,0 -51.834,0 -78.191,0.001Z" style="fill:#e2e6f2;fill-rule:nonzero;"/><path d="M139.105,300.922c21.491,-0 42.542,-0 63.205,-0c1.575,10.059 3.074,19.632 4.647,29.685c-0.674,0.06 -2.032,0.288 -3.39,0.289c-34.113,0.02 -68.227,-0.03 -102.339,0.085c-3.489,0.012 -4.973,-0.887 -5.09,-4.561c-0.265,-8.29 -0.894,-16.569 -1.412,-25.498c15.043,-0 29.492,-0 44.379,-0Z" style="fill:#e2e6f2;fill-rule:nonzero;"/><path d="M378.168,300.922c13.131,-0 25.823,-0 39.148,-0c-0.611,9.661 -1.118,18.677 -1.858,27.673c-0.067,0.825 -1.518,1.909 -2.519,2.193c-1.357,0.385 -2.901,0.123 -4.365,0.123c-32.796,0.002 -65.591,0.001 -98.387,0.001c-1.876,0 -3.753,0.001 -5.249,0.001c1.602,-9.991 3.139,-19.576 4.81,-29.991c22.137,-0 45.059,-0 68.42,-0Z" style="fill:#e2e6f2;fill-rule:nonzero;"/><path d="M436.494,465.945c0.46,-5.049 1.74,-10.024 2.117,-15.066c1.146,-15.307 1.867,-30.645 2.896,-45.962c1.321,-19.688 2.826,-39.363 4.165,-59.05c1.011,-14.878 1.846,-29.768 2.834,-44.647c0.736,-11.084 1.776,-22.15 2.291,-33.243c0.171,-3.696 -0.865,-7.449 -1.438,-11.498c2.251,-0.369 4.596,-0.534 6.93,-0.438c6.07,0.249 9.012,3.672 8.608,9.719c-1.703,25.531 -3.342,51.065 -5.077,76.593c-2.221,32.676 -4.515,65.347 -6.766,98.021c-0.362,5.252 -0.715,10.505 -0.982,15.763c-0.378,7.434 -2.863,9.86 -10.341,9.905c-1.609,0.009 -3.219,-0.035 -5.237,-0.097Z" style="fill:#a4c2f7;fill-rule:nonzero;"/><path d="M257.758,241.003c-8.456,-0 -16.472,-0 -25.202,-0c1.519,-8.441 2.708,-16.467 4.482,-24.363c1.072,-4.775 -0.12,-8.138 -3.846,-11.145c-5.537,-4.468 -10.853,-9.209 -17.323,-14.739c8.936,-0.768 16.572,-1.814 24.228,-1.981c9.043,-0.198 18.104,0.36 27.157,0.601c2.35,0.062 4.14,0.505 4.515,3.515c1.916,15.364 4.013,30.705 6.031,46.056c0.056,0.421 -0.062,0.865 -0.163,2.056c-6.444,-0 -12.942,-0 -19.879,-0Z" style="fill:#e1e6f2;fill-rule:nonzero;"/><path d="M406.365,229.023c0.696,-1.383 1.613,-2.345 2.116,-3.488c12.42,-28.276 24.805,-56.567 37.15,-84.875c0.563,-1.29 0.694,-2.768 0.904,-4.465c4.763,-0.308 9.648,-0.308 15.415,-0.308c-2.676,6.28 -4.952,11.736 -7.319,17.153c-12.156,27.828 -24.34,55.644 -36.5,83.47c-1.076,2.463 -2.065,5.222 -5.469,4.422c-1.391,-0.328 -3.1,-1.528 -3.646,-2.776c-1.215,-2.783 -1.789,-5.847 -2.651,-9.133Z" style="fill:#7dabfa;fill-rule:nonzero;"/><path d="M443.524,67.595c14.521,14.725 21.872,32.136 22.479,53.224c-7.176,-0 -13.988,0.118 -20.78,-0.188c-0.662,-0.03 -1.72,-2.683 -1.723,-4.121c-0.022,-11.05 -1.197,-21.871 -5.09,-32.319c-4.878,-13.091 -12.812,-23.896 -23.792,-32.491c-0.657,-0.514 -1.421,-0.891 -1.776,-1.759c11.846,3.033 21.803,9.113 30.682,17.654Z" style="fill:#e1e6f2;fill-rule:nonzero;"/><path d="M308.783,240.709c2.044,-13.337 4.397,-26.488 6.865,-40.275c13.419,7.932 26.061,15.405 39.19,23.165c-6.937,5.758 -13.288,11.108 -19.757,16.313c-0.916,0.737 -2.402,1.06 -3.628,1.069c-7.453,0.053 -14.907,-0.041 -22.67,-0.272Z" style="fill:#e1e6f2;fill-rule:nonzero;"/><path d="M169.89,241.034c-15.886,0.165 -13.143,0.165 -11.407,-13.032c0.701,-5.329 3.61,-6.879 7.942,-8.792c6.858,-3.028 12.368,-3.069 17.199,3.235c1.558,2.033 4.936,3.633 5.069,5.594c0.258,3.805 -1.052,7.763 -2.067,11.564c-0.188,0.704 -2.031,1.324 -3.133,1.363c-4.385,0.156 -8.778,0.066 -13.603,0.068Z" style="fill:#e1e6f2;fill-rule:nonzero;"/><path d="M287.665,199.752c-0.696,-5.583 -1.36,-10.775 -2.164,-17.061c5.636,3.313 10.471,5.956 15.032,9.011c0.866,0.58 1.102,2.872 0.85,4.231c-2.531,13.653 -5.225,27.275 -8.703,41.014c-1.661,-12.268 -3.322,-24.535 -5.015,-37.195Z" style="fill:#dee4f2;fill-rule:nonzero;"/><path d="M153.504,192.192c7.181,-2.524 14.043,-4.914 21.501,-7.512c-0.619,5.329 -1.045,10.084 -1.822,14.782c-0.162,0.976 -1.485,2.018 -2.52,2.535c-1.814,0.904 -3.816,1.432 -5.743,2.106c-12.615,4.411 -14.511,3.808 -23.217,-7.65c3.908,-1.405 7.695,-2.766 11.801,-4.261Z" style="fill:#e0e5f2;fill-rule:nonzero;"/><path d="M127.369,232.734c1.473,-7.94 2.861,-15.514 4.459,-24.238c4.504,4.23 8.368,7.68 11.963,11.39c0.694,0.716 0.59,2.488 0.418,3.712c-1.747,12.504 -1.77,12.507 -13.871,16.479c-1.217,0.399 -2.477,0.662 -4.424,1.174c0.52,-3.096 0.945,-5.623 1.455,-8.517Z" style="fill:#e0e5f2;fill-rule:nonzero;"/><path d="M188.689,196.592c0.395,-2.646 0.722,-4.911 1.189,-8.155c8.717,7.4 16.769,14.236 25.417,21.577c-5.405,1.918 -10.031,3.653 -14.733,5.147c-0.91,0.289 -2.222,-0.162 -3.162,-0.639c-1.017,-0.515 -1.726,-1.613 -2.723,-2.193c-6.084,-3.542 -8.224,-8.587 -5.988,-15.737Z" style="fill:#e0e5f2;fill-rule:nonzero;"/><path d="M61.296,120.791c0.368,-18.161 5.222,-34.843 16.551,-49.285c0.518,-0.66 1.311,-1.103 2.277,-1.698c-8.327,14.632 -12.108,30.516 -11.552,47.495c0.192,5.88 -4.325,2.881 -7.276,3.488Z" style="fill:#e0e5f2;fill-rule:nonzero;"/><path d="M355.341,205.861c-8.243,-4.571 -16.486,-9.141 -25.87,-14.344c5.754,-1.526 10.15,-2.823 14.613,-3.825c2.621,-0.588 7.762,2.87 8.496,5.604c1.059,3.944 1.906,7.945 2.785,12.263c-0.059,0.342 -0.024,0.302 -0.024,0.302Z" style="fill:#dee4f2;fill-rule:nonzero;"/><path d="M300.311,173.973c-1.472,-0.933 -2.681,-1.704 -4.002,-2.546c11.132,-5.637 18.887,-4.3 29.85,4.94c-8.957,4.595 -17.6,4.867 -25.848,-2.394Z" style="fill:#dee4f2;fill-rule:nonzero;"/><path d="M389.492,226.23c-4.57,-2.562 -9.194,-5.036 -13.669,-7.755c-0.971,-0.59 -1.701,-1.973 -2.04,-3.137c-1.177,-4.037 -2.133,-8.138 -3.241,-12.481c11.158,3.748 18.915,9.874 19.223,22.741c-0.091,0.446 -0.273,0.632 -0.273,0.632Z" style="fill:#dee4f2;fill-rule:nonzero;"/><path d="M216.591,225.513c1.134,-0.296 1.961,-0.473 3.593,-0.823c-0.965,5.144 -1.74,9.831 -2.811,14.45c-0.178,0.768 -1.621,1.717 -2.52,1.762c-3.909,0.193 -7.832,0.083 -11.634,0.083c-1.844,-7.092 0.129,-10.894 6.436,-13.055c2.212,-0.758 4.419,-1.531 6.936,-2.417Z" style="fill:#a1c1f7;fill-rule:nonzero;"/><path d="M378.822,237.737c1.461,0.926 2.65,1.694 4.682,3.007l-25.735,0c3.675,-3.063 6.547,-5.667 9.677,-7.912c0.733,-0.526 2.493,-0.154 3.508,0.352c2.614,1.301 5.075,2.909 7.868,4.553Z" style="fill:#dee4f2;fill-rule:nonzero;"/><path d="M81.308,68.639c-0.053,-0.331 0.128,-0.799 0.493,-1.442c0.036,0.318 -0.112,0.812 -0.493,1.442Z" style="fill:#e0e5f2;fill-rule:nonzero;"/><path d="M389.766,225.951c0.141,0.133 0.19,0.359 0.24,0.585c-0.122,-0.011 -0.244,-0.021 -0.439,-0.169c-0.075,-0.137 0.107,-0.323 0.199,-0.416Z" style="fill:#dee4f2;fill-rule:nonzero;"/><path d="M355.286,205.92c-0.019,0.019 0.282,0.091 0.282,0.091c0,0 -0.21,0.019 -0.218,-0.066c-0.009,-0.084 -0.044,-0.044 -0.064,-0.025Z" style="fill:#dee4f2;fill-rule:nonzero;"/><path d="M49.96,320.713c1.56,4.987 0.619,8.247 -2.82,10.046c-3.17,1.659 -6.295,1.356 -8.786,-1.237c-2.596,-2.701 -2.993,-5.936 -0.943,-9.183c2.863,-4.535 8.373,-4.456 12.549,0.374Z" style="fill:#448eff;fill-rule:nonzero;"/><path d="M278.05,297.333c-1.504,7.364 -5.433,12.461 -11.61,16.116c-1.39,0.823 -2.327,2.985 -2.761,4.71c-0.56,2.229 -0.149,4.691 -0.615,6.958c-0.783,3.806 -3.419,5.73 -7.268,5.65c-3.652,-0.076 -6.898,-2.095 -6.722,-5.598c0.378,-7.543 -3.336,-11.646 -8.868,-16.186c-8.07,-6.623 -8.696,-18.845 -3.032,-27.681c5.617,-8.765 16.638,-12.407 26.624,-8.8c9.954,3.596 15.527,13.145 14.252,24.831m-15.27,-1.152c0.923,-6.796 -2.861,-11.305 -8.328,-9.832c-3.254,0.877 -5.369,2.886 -5.589,6.458c-0.225,3.633 1.224,6.395 4.7,7.552c3.795,1.263 6.888,0.021 9.217,-4.178Z" style="fill:#448eff;fill-rule:nonzero;"/><path d="M262.631,296.502c-2.18,3.878 -5.273,5.12 -9.068,3.857c-3.476,-1.157 -4.925,-3.919 -4.7,-7.552c0.22,-3.572 2.335,-5.581 5.589,-6.458c5.467,-1.473 9.251,3.036 8.179,10.153Z" style="fill:#a1c1f7;fill-rule:nonzero;"/></g></svg>